<svg height="20" viewBox="0 0 50 20" width="50" xmlns="http://www.w3.org/2000/svg"><path d="m0 0h1v20h-1zm10 10h1v10h-1zm10 0h1v10h-1zm10 0h1v10h-1zm10 0h1v10h-1zm20 0h1v10h-1zm20 0h1v10h-1zm-10 0h1v10h-1zm20 0h1v10h-1zm20 0h1v10h-1zm20 0h1v10h-1zm-10 0h1v10h-1zm20 0h1v10h-1zm20 0h1v10h-1zm20 0h1v10h-1zm-10 0h1v10h-1zm20 0h1v10h-1zm20 0h1v10h-1zm20 0h1v10h-1zm-10 0h1v10h-1zm20 0h1v10h-1zm20 0h1v10h-1zm20 0h1v10h-1zm-10 0h1v10h-1zm20 0h1v10h-1zm20 0h1v10h-1zm20 0h1v10h-1zm-10 0h1v10h-1zm20 0h1v10h-1zm20 0h1v10h-1zm20 0h1v10h-1zm-10 0h1v10h-1zm20 0h1v10h-1zm20 0h1v10h-1zm20 0h1v10h-1zm-10 0h1v10h-1zm20 0h1v10h-1zm-390-10h1v20h-1zm50 0h1v20h-1zm50 0h1v20h-1zm50 0h1v20h-1zm50 0h1v20h-1zm50 0h1v20h-1zm50 0h1v20h-1zm50 0h1v20h-1zm50 0h1v20h-1zm50 0h1v20h-1zm50 0h1v20h-1zm50 0h1v20h-1zm50 0h1v20h-1zm50 0h1v20h-1zm50 0h1v20h-1zm50 0h1v20h-1zm50 0h1v20h-1zm50 0h1v20h-1zm50 0h1v20h-1zm50 0h1v20h-1zm-540 10h1v10h-1zm20 0h1v10h-1zm-10 0h1v10h-1zm20 0h1v10h-1zm20 0h1v10h-1zm20 0h1v10h-1zm-10 0h1v10h-1zm20 0h1v10h-1zm20 0h1v10h-1zm20 0h1v10h-1zm-10 0h1v10h-1zm20 0h1v10h-1zm20 0h1v10h-1zm20 0h1v10h-1zm-10 0h1v10h-1zm20 0h1v10h-1zm20 0h1v10h-1zm10 0h1v10h-1zm10 0h1v10h-1zm10 0h1v10h-1zm20 0h1v10h-1zm10 0h1v10h-1zm10 0h1v10h-1zm10 0h1v10h-1zm20 0h1v10h-1zm10 0h1v10h-1zm10 0h1v10h-1zm10 0h1v10h-1zm20 0h1v10h-1zm10 0h1v10h-1zm10 0h1v10h-1zm10 0h1v10h-1zm20 0h1v10h-1zm10 0h1v10h-1zm10 0h1v10h-1zm10 0h1v10h-1zm20 0h1v10h-1zm10 0h1v10h-1zm10 0h1v10h-1zm10 0h1v10h-1zm20 0h1v10h-1zm10 0h1v10h-1zm10 0h1v10h-1zm10 0h1v10h-1zm20 0h1v10h-1zm10 0h1v10h-1zm10 0h1v10h-1zm10 0h1v10h-1z" fill="#250c0c" fill-rule="evenodd" opacity=".2"/></svg>